<svg xmlns="http://www.w3.org/2000/svg" viewBox="0 0 360 720">
  <defs>
    <linearGradient id="screen" x1="0%" y1="0%" x2="0%" y2="100%">
      <stop offset="0%" stop-color="#0d0d0f"/>
      <stop offset="100%" stop-color="#1b1b1f"/>
    </linearGradient>
    <linearGradient id="beam" x1="0%" y1="0%" x2="100%" y2="0%">
      <stop offset="0%" stop-color="#d4af37" stop-opacity="0.1"/>
      <stop offset="100%" stop-color="#d4af37" stop-opacity="0.6"/>
    </linearGradient>
  </defs>
  <rect x="30" y="20" width="300" height="680" rx="36" fill="#0b0b0c" stroke="#222" stroke-width="6"/>
  <rect x="50" y="70" width="260" height="580" rx="24" fill="url(#screen)" stroke="#2e2e35" stroke-width="4"/>
  <rect x="150" y="40" width="60" height="8" rx="4" fill="#1e1e22"/>
  <circle cx="130" cy="44" r="4" fill="#1e1e22"/>
  
  <rect x="70" y="140" width="220" height="320" rx="18" fill="#f7f7f7" stroke="#cfcfcf" stroke-width="3"/>
  <path d="M110 260 C140 200 220 200 250 260 C270 300 260 360 220 380 C180 400 140 360 130 320" fill="none" stroke="#555" stroke-width="6" stroke-linecap="round" stroke-linejoin="round"/>
  <text x="180" y="220" font-size="16" font-family="JetBrains Mono, monospace" text-anchor="middle" fill="#777">UPLOAD</text>
  <text x="180" y="460" font-size="12" font-family="JetBrains Mono, monospace" text-anchor="middle" fill="#999">Simulated artwork preview</text>

  <rect x="70" y="500" width="220" height="80" rx="16" fill="#0f172a" stroke="#2c3657" stroke-width="2"/>
  <rect x="70" y="500" width="220" height="80" rx="16" fill="url(#beam)" opacity="0.4"/>
  <text x="180" y="547" font-size="18" font-family="JetBrains Mono, monospace" text-anchor="middle" fill="#f5f5f5">ANALYZING</text>
  <text x="180" y="570" font-size="12" font-family="JetBrains Mono, monospace" text-anchor="middle" fill="#d4af37">Contours & background</text>
</svg>

