<svg xmlns="http://www.w3.org/2000/svg" viewBox="0 0 400 600">
  <defs>
    <linearGradient id="skin" x1="0%" y1="0%" x2="0%" y2="100%">
      <stop offset="0%" stop-color="#f5d6c6"/>
      <stop offset="100%" stop-color="#d8a58d"/>
    </linearGradient>
    <linearGradient id="glow" x1="0%" y1="0%" x2="100%" y2="0%">
      <stop offset="0%" stop-color="#d4af37" stop-opacity="0.2"/>
      <stop offset="100%" stop-color="#d4af37" stop-opacity="0.6"/>
    </linearGradient>
  </defs>
  <rect width="400" height="600" rx="30" fill="url(#skin)"/>
  <rect x="40" y="40" width="320" height="520" rx="28" fill="none" stroke="#b97f63" stroke-width="4" stroke-opacity="0.5"/>
  <path d="M120 170 C160 120 240 120 280 170 C320 220 320 320 280 370 C240 420 160 420 120 370 C80 320 80 220 120 170 Z" fill="none" stroke="#1f1f1f" stroke-width="6" stroke-linecap="round" stroke-linejoin="round"/>
  <path d="M200 250 C220 230 250 230 260 250 C270 270 250 300 230 290" fill="none" stroke="#1f1f1f" stroke-width="5" stroke-linecap="round"/>
  <path d="M190 340 L190 410" stroke="#1f1f1f" stroke-width="5" stroke-linecap="round"/>
  <path d="M190 380 L150 350" stroke="#1f1f1f" stroke-width="5" stroke-linecap="round"/>
  <path d="M190 380 L230 350" stroke="#1f1f1f" stroke-width="5" stroke-linecap="round"/>
  <rect x="60" y="80" width="280" height="20" fill="url(#glow)" opacity="0.6"/>
  <text x="200" y="550" font-size="14" font-family="JetBrains Mono, monospace" text-anchor="middle" fill="#6b4b3b">Tattoo render placeholder</text>
</svg>

